<?xml version="1.0" encoding="utf-8" standalone="no"?>
<!DOCTYPE svg PUBLIC "-//W3C//DTD SVG 1.1//EN"
  "http://www.w3.org/Graphics/SVG/1.1/DTD/svg11.dtd">
<!-- Created with matplotlib (https://matplotlib.org/) -->
<svg height="576pt" version="1.1" viewBox="0 0 432 576" width="432pt" xmlns="http://www.w3.org/2000/svg" xmlns:xlink="http://www.w3.org/1999/xlink">
 <metadata>
  <rdf:RDF xmlns:cc="http://creativecommons.org/ns#" xmlns:dc="http://purl.org/dc/elements/1.1/" xmlns:rdf="http://www.w3.org/1999/02/22-rdf-syntax-ns#">
   <cc:Work>
    <dc:type rdf:resource="http://purl.org/dc/dcmitype/StillImage"/>
    <dc:date>2024-02-08T11:21:20.995976</dc:date>
    <dc:format>image/svg+xml</dc:format>
    <dc:creator>
     <cc:Agent>
      <dc:title>Matplotlib v3.3.2, https://matplotlib.org/</dc:title>
     </cc:Agent>
    </dc:creator>
   </cc:Work>
  </rdf:RDF>
 </metadata>
 <defs>
  <style type="text/css">*{stroke-linecap:butt;stroke-linejoin:round;}</style>
 </defs>
 <g id="figure_1">
  <g id="patch_1">
   <path d="M 0 576 
L 432 576 
L 432 0 
L 0 0 
z
" style="fill:none;"/>
  </g>
  <g id="axes_1">
   <g id="patch_2">
    <path d="M 54 504 
L 388.8 504 
L 388.8 69.12 
L 54 69.12 
z
" style="fill:#ffffff;"/>
   </g>
   <g id="PathCollection_1"/>
   <g id="PathCollection_2"/>
   <g id="matplotlib.axis_1">
    <g id="xtick_1">
     <g id="line2d_1">
      <defs>
       <path d="M 0 0 
L 0 -3.5 
" id="m05cb76d7ca" style="stroke:#000000;stroke-width:0.8;"/>
      </defs>
      <g>
       <use style="stroke:#000000;stroke-width:0.8;" x="221.4" xlink:href="#m05cb76d7ca" y="504"/>
      </g>
     </g>
     <g id="text_1">
      <text style="font-family:DejaVu Sans;font-size:28px;font-stretch:normal;font-style:normal;font-weight:normal;text-anchor:middle;" transform="rotate(-0, 221.4, 528.775625)" x="221.4" y="528.775625">AB</text>
     </g>
    </g>
    <g id="text_2">
     <text style="font-family:DejaVu Sans;font-size:33.6px;font-stretch:normal;font-style:normal;font-weight:normal;text-anchor:middle;" transform="rotate(-0, 221.4, 564.1295)" x="221.4" y="564.1295">Test</text>
    </g>
   </g>
   <g id="matplotlib.axis_2">
    <g id="ytick_1">
     <g id="line2d_2">
      <defs>
       <path d="M 0 0 
L 3.5 0 
" id="mfac3e79f87" style="stroke:#000000;stroke-width:0.8;"/>
      </defs>
      <g>
       <use style="stroke:#000000;stroke-width:0.8;" x="54" xlink:href="#mfac3e79f87" y="504"/>
      </g>
     </g>
     <g id="text_3">
      <text style="font-family:DejaVu Sans;font-size:20px;font-stretch:normal;font-style:normal;font-weight:normal;text-anchor:end;" transform="rotate(-0, 50.5, 511.598437)" x="50.5" y="511.598437">0.0</text>
     </g>
    </g>
    <g id="ytick_2">
     <g id="line2d_3">
      <g>
       <use style="stroke:#000000;stroke-width:0.8;" x="54" xlink:href="#mfac3e79f87" y="418.729412"/>
      </g>
     </g>
     <g id="text_4">
      <text style="font-family:DejaVu Sans;font-size:20px;font-stretch:normal;font-style:normal;font-weight:normal;text-anchor:end;" transform="rotate(-0, 50.5, 426.327849)" x="50.5" y="426.327849">0.2</text>
     </g>
    </g>
    <g id="ytick_3">
     <g id="line2d_4">
      <g>
       <use style="stroke:#000000;stroke-width:0.8;" x="54" xlink:href="#mfac3e79f87" y="333.458824"/>
      </g>
     </g>
     <g id="text_5">
      <text style="font-family:DejaVu Sans;font-size:20px;font-stretch:normal;font-style:normal;font-weight:normal;text-anchor:end;" transform="rotate(-0, 50.5, 341.057261)" x="50.5" y="341.057261">0.4</text>
     </g>
    </g>
    <g id="ytick_4">
     <g id="line2d_5">
      <g>
       <use style="stroke:#000000;stroke-width:0.8;" x="54" xlink:href="#mfac3e79f87" y="248.188235"/>
      </g>
     </g>
     <g id="text_6">
      <text style="font-family:DejaVu Sans;font-size:20px;font-stretch:normal;font-style:normal;font-weight:normal;text-anchor:end;" transform="rotate(-0, 50.5, 255.786673)" x="50.5" y="255.786673">0.6</text>
     </g>
    </g>
    <g id="ytick_5">
     <g id="line2d_6">
      <g>
       <use style="stroke:#000000;stroke-width:0.8;" x="54" xlink:href="#mfac3e79f87" y="162.917647"/>
      </g>
     </g>
     <g id="text_7">
      <text style="font-family:DejaVu Sans;font-size:20px;font-stretch:normal;font-style:normal;font-weight:normal;text-anchor:end;" transform="rotate(-0, 50.5, 170.516085)" x="50.5" y="170.516085">0.8</text>
     </g>
    </g>
    <g id="ytick_6">
     <g id="line2d_7">
      <g>
       <use style="stroke:#000000;stroke-width:0.8;" x="54" xlink:href="#mfac3e79f87" y="77.647059"/>
      </g>
     </g>
     <g id="text_8">
      <text style="font-family:DejaVu Sans;font-size:20px;font-stretch:normal;font-style:normal;font-weight:normal;text-anchor:end;" transform="rotate(-0, 50.5, 85.245496)" x="50.5" y="85.245496">1.0</text>
     </g>
    </g>
    <g id="text_9">
     <text style="font-family:DejaVu Sans;font-size:33.6px;font-stretch:normal;font-style:normal;font-weight:normal;text-anchor:middle;" transform="rotate(-90, 6.7715, 286.56)" x="6.7715" y="286.56">Total_acc</text>
    </g>
   </g>
   <g id="LineCollection_1">
    <path clip-path="url(#pb9c5f5f5ea)" d="M 221.4 151.265366 
L 221.4 129.822074 
" style="fill:none;stroke:#a6cd57;stroke-width:2;"/>
   </g>
   <g id="LineCollection_2">
    <path clip-path="url(#pb9c5f5f5ea)" d="M 221.4 188.078631 
L 221.4 165.988142 
" style="fill:none;stroke:#579d42;stroke-width:2;"/>
   </g>
   <g id="line2d_8">
    <path clip-path="url(#pb9c5f5f5ea)" d="M 221.4 140.54372 
" style="fill:none;stroke:#a6cd57;stroke-linecap:square;stroke-width:2;"/>
    <defs>
     <path d="M 0 5 
C 1.326016 5 2.597899 4.473168 3.535534 3.535534 
C 4.473168 2.597899 5 1.326016 5 0 
C 5 -1.326016 4.473168 -2.597899 3.535534 -3.535534 
C 2.597899 -4.473168 1.326016 -5 0 -5 
C -1.326016 -5 -2.597899 -4.473168 -3.535534 -3.535534 
C -4.473168 -2.597899 -5 -1.326016 -5 0 
C -5 1.326016 -4.473168 2.597899 -3.535534 3.535534 
C -2.597899 4.473168 -1.326016 5 0 5 
z
" id="m8e9c92c096" style="stroke:#ffffff;stroke-width:0.5;"/>
    </defs>
    <g clip-path="url(#pb9c5f5f5ea)">
     <use style="fill:#a6cd57;stroke:#ffffff;stroke-width:0.5;" x="221.4" xlink:href="#m8e9c92c096" y="140.54372"/>
    </g>
   </g>
   <g id="line2d_9">
    <path clip-path="url(#pb9c5f5f5ea)" d="M 221.4 177.033386 
" style="fill:none;stroke:#579d42;stroke-linecap:square;stroke-width:2;"/>
    <defs>
     <path d="M 0 7.071068 
L 7.071068 0 
L 0 -7.071068 
L -7.071068 0 
z
" id="m2c6c03b136" style="stroke:#ffffff;stroke-linejoin:miter;stroke-width:0.5;"/>
    </defs>
    <g clip-path="url(#pb9c5f5f5ea)">
     <use style="fill:#579d42;stroke:#ffffff;stroke-linejoin:miter;stroke-width:0.5;" x="221.4" xlink:href="#m2c6c03b136" y="177.033386"/>
    </g>
   </g>
   <g id="line2d_10">
    <defs>
     <path d="M 0 3 
C 0.795609 3 1.55874 2.683901 2.12132 2.12132 
C 2.683901 1.55874 3 0.795609 3 0 
C 3 -0.795609 2.683901 -1.55874 2.12132 -2.12132 
C 1.55874 -2.683901 0.795609 -3 0 -3 
C -0.795609 -3 -1.55874 -2.683901 -2.12132 -2.12132 
C -2.683901 -1.55874 -3 -0.795609 -3 0 
C -3 0.795609 -2.683901 1.55874 -2.12132 2.12132 
C -1.55874 2.683901 -0.795609 3 0 3 
z
" id="m48fb76841b" style="stroke:#ffffff;stroke-width:0.5;"/>
    </defs>
    <g clip-path="url(#pb9c5f5f5ea)">
     <use style="fill:#a6cd57;stroke:#ffffff;stroke-width:0.5;" x="221.4" xlink:href="#m48fb76841b" y="140.54372"/>
    </g>
   </g>
   <g id="line2d_11">
    <defs>
     <path d="M 0 3 
C 0.795609 3 1.55874 2.683901 2.12132 2.12132 
C 2.683901 1.55874 3 0.795609 3 0 
C 3 -0.795609 2.683901 -1.55874 2.12132 -2.12132 
C 1.55874 -2.683901 0.795609 -3 0 -3 
C -0.795609 -3 -1.55874 -2.683901 -2.12132 -2.12132 
C -2.683901 -1.55874 -3 -0.795609 -3 0 
C -3 0.795609 -2.683901 1.55874 -2.12132 2.12132 
C -1.55874 2.683901 -0.795609 3 0 3 
z
" id="m0a4e92255c" style="stroke:#ffffff;stroke-width:0.5;"/>
    </defs>
    <g clip-path="url(#pb9c5f5f5ea)">
     <use style="fill:#579d42;stroke:#ffffff;stroke-width:0.5;" x="221.4" xlink:href="#m0a4e92255c" y="177.033386"/>
    </g>
   </g>
   <g id="patch_3">
    <path d="M 54 504 
L 54 69.12 
" style="fill:none;stroke:#bcbcbc;stroke-linecap:square;stroke-linejoin:miter;stroke-width:0.8;"/>
   </g>
   <g id="patch_4">
    <path d="M 54 504 
L 388.8 504 
" style="fill:none;stroke:#bcbcbc;stroke-linecap:square;stroke-linejoin:miter;stroke-width:0.8;"/>
   </g>
   <g id="PathCollection_3">
    <defs>
     <path d="M 0 2.5 
C 0.663008 2.5 1.29895 2.236584 1.767767 1.767767 
C 2.236584 1.29895 2.5 0.663008 2.5 -0 
C 2.5 -0.663008 2.236584 -1.29895 1.767767 -1.767767 
C 1.29895 -2.236584 0.663008 -2.5 0 -2.5 
C -0.663008 -2.5 -1.29895 -2.236584 -1.767767 -1.767767 
C -2.236584 -1.29895 -2.5 -0.663008 -2.5 0 
C -2.5 0.663008 -2.236584 1.29895 -1.767767 1.767767 
C -1.29895 2.236584 -0.663008 2.5 0 2.5 
z
" id="C0_0_3ec6a7e9c1"/>
    </defs>
    <g clip-path="url(#pb9c5f5f5ea)">
     <use style="fill:#a6cd57;" x="154.44" xlink:href="#C0_0_3ec6a7e9c1" y="344.117647"/>
    </g>
    <g clip-path="url(#pb9c5f5f5ea)">
     <use style="fill:#a6cd57;" x="154.44" xlink:href="#C0_0_3ec6a7e9c1" y="290.823529"/>
    </g>
    <g clip-path="url(#pb9c5f5f5ea)">
     <use style="fill:#a6cd57;" x="154.44" xlink:href="#C0_0_3ec6a7e9c1" y="273.058823"/>
    </g>
    <g clip-path="url(#pb9c5f5f5ea)">
     <use style="fill:#a6cd57;" x="154.44" xlink:href="#C0_0_3ec6a7e9c1" y="219.764706"/>
    </g>
    <g clip-path="url(#pb9c5f5f5ea)">
     <use style="fill:#a6cd57;" x="149.19" xlink:href="#C0_0_3ec6a7e9c1" y="219.764706"/>
    </g>
    <g clip-path="url(#pb9c5f5f5ea)">
     <use style="fill:#a6cd57;" x="159.69" xlink:href="#C0_0_3ec6a7e9c1" y="219.764706"/>
    </g>
    <g clip-path="url(#pb9c5f5f5ea)">
     <use style="fill:#a6cd57;" x="154.44" xlink:href="#C0_0_3ec6a7e9c1" y="184.235294"/>
    </g>
    <g clip-path="url(#pb9c5f5f5ea)">
     <use style="fill:#a6cd57;" x="149.19" xlink:href="#C0_0_3ec6a7e9c1" y="184.235294"/>
    </g>
    <g clip-path="url(#pb9c5f5f5ea)">
     <use style="fill:#a6cd57;" x="154.44" xlink:href="#C0_0_3ec6a7e9c1" y="166.470588"/>
    </g>
    <g clip-path="url(#pb9c5f5f5ea)">
     <use style="fill:#a6cd57;" x="149.19" xlink:href="#C0_0_3ec6a7e9c1" y="166.470588"/>
    </g>
    <g clip-path="url(#pb9c5f5f5ea)">
     <use style="fill:#a6cd57;" x="154.44" xlink:href="#C0_0_3ec6a7e9c1" y="148.705882"/>
    </g>
    <g clip-path="url(#pb9c5f5f5ea)">
     <use style="fill:#a6cd57;" x="149.19" xlink:href="#C0_0_3ec6a7e9c1" y="148.705882"/>
    </g>
    <g clip-path="url(#pb9c5f5f5ea)">
     <use style="fill:#a6cd57;" x="159.69" xlink:href="#C0_0_3ec6a7e9c1" y="148.705882"/>
    </g>
    <g clip-path="url(#pb9c5f5f5ea)">
     <use style="fill:#a6cd57;" x="143.94" xlink:href="#C0_0_3ec6a7e9c1" y="148.705882"/>
    </g>
    <g clip-path="url(#pb9c5f5f5ea)">
     <use style="fill:#a6cd57;" x="164.94" xlink:href="#C0_0_3ec6a7e9c1" y="148.705882"/>
    </g>
    <g clip-path="url(#pb9c5f5f5ea)">
     <use style="fill:#a6cd57;" x="154.44" xlink:href="#C0_0_3ec6a7e9c1" y="130.941176"/>
    </g>
    <g clip-path="url(#pb9c5f5f5ea)">
     <use style="fill:#a6cd57;" x="149.19" xlink:href="#C0_0_3ec6a7e9c1" y="130.941176"/>
    </g>
    <g clip-path="url(#pb9c5f5f5ea)">
     <use style="fill:#a6cd57;" x="159.69" xlink:href="#C0_0_3ec6a7e9c1" y="130.941176"/>
    </g>
    <g clip-path="url(#pb9c5f5f5ea)">
     <use style="fill:#a6cd57;" x="143.94" xlink:href="#C0_0_3ec6a7e9c1" y="130.941176"/>
    </g>
    <g clip-path="url(#pb9c5f5f5ea)">
     <use style="fill:#a6cd57;" x="164.94" xlink:href="#C0_0_3ec6a7e9c1" y="130.941176"/>
    </g>
    <g clip-path="url(#pb9c5f5f5ea)">
     <use style="fill:#a6cd57;" x="138.69" xlink:href="#C0_0_3ec6a7e9c1" y="130.941176"/>
    </g>
    <g clip-path="url(#pb9c5f5f5ea)">
     <use style="fill:#a6cd57;" x="154.44" xlink:href="#C0_0_3ec6a7e9c1" y="113.17647"/>
    </g>
    <g clip-path="url(#pb9c5f5f5ea)">
     <use style="fill:#a6cd57;" x="154.44" xlink:href="#C0_0_3ec6a7e9c1" y="95.411765"/>
    </g>
    <g clip-path="url(#pb9c5f5f5ea)">
     <use style="fill:#a6cd57;" x="149.19" xlink:href="#C0_0_3ec6a7e9c1" y="95.411765"/>
    </g>
    <g clip-path="url(#pb9c5f5f5ea)">
     <use style="fill:#a6cd57;" x="159.69" xlink:href="#C0_0_3ec6a7e9c1" y="95.411765"/>
    </g>
    <g clip-path="url(#pb9c5f5f5ea)">
     <use style="fill:#a6cd57;" x="143.94" xlink:href="#C0_0_3ec6a7e9c1" y="95.411765"/>
    </g>
    <g clip-path="url(#pb9c5f5f5ea)">
     <use style="fill:#a6cd57;" x="164.94" xlink:href="#C0_0_3ec6a7e9c1" y="95.411765"/>
    </g>
    <g clip-path="url(#pb9c5f5f5ea)">
     <use style="fill:#a6cd57;" x="138.69" xlink:href="#C0_0_3ec6a7e9c1" y="95.411765"/>
    </g>
    <g clip-path="url(#pb9c5f5f5ea)">
     <use style="fill:#a6cd57;" x="170.19" xlink:href="#C0_0_3ec6a7e9c1" y="95.411765"/>
    </g>
    <g clip-path="url(#pb9c5f5f5ea)">
     <use style="fill:#a6cd57;" x="154.44" xlink:href="#C0_0_3ec6a7e9c1" y="77.647059"/>
    </g>
    <g clip-path="url(#pb9c5f5f5ea)">
     <use style="fill:#a6cd57;" x="149.19" xlink:href="#C0_0_3ec6a7e9c1" y="77.647059"/>
    </g>
    <g clip-path="url(#pb9c5f5f5ea)">
     <use style="fill:#a6cd57;" x="159.69" xlink:href="#C0_0_3ec6a7e9c1" y="77.647059"/>
    </g>
    <g clip-path="url(#pb9c5f5f5ea)">
     <use style="fill:#a6cd57;" x="143.94" xlink:href="#C0_0_3ec6a7e9c1" y="77.647059"/>
    </g>
    <g clip-path="url(#pb9c5f5f5ea)">
     <use style="fill:#a6cd57;" x="164.94" xlink:href="#C0_0_3ec6a7e9c1" y="77.647059"/>
    </g>
    <g clip-path="url(#pb9c5f5f5ea)">
     <use style="fill:#a6cd57;" x="138.69" xlink:href="#C0_0_3ec6a7e9c1" y="77.647059"/>
    </g>
    <g clip-path="url(#pb9c5f5f5ea)">
     <use style="fill:#a6cd57;" x="170.19" xlink:href="#C0_0_3ec6a7e9c1" y="77.647059"/>
    </g>
    <g clip-path="url(#pb9c5f5f5ea)">
     <use style="fill:#a6cd57;" x="133.44" xlink:href="#C0_0_3ec6a7e9c1" y="77.647059"/>
    </g>
   </g>
   <g id="PathCollection_4">
    <defs>
     <path d="M 0 2.5 
C 0.663008 2.5 1.29895 2.236584 1.767767 1.767767 
C 2.236584 1.29895 2.5 0.663008 2.5 -0 
C 2.5 -0.663008 2.236584 -1.29895 1.767767 -1.767767 
C 1.29895 -2.236584 0.663008 -2.5 0 -2.5 
C -0.663008 -2.5 -1.29895 -2.236584 -1.767767 -1.767767 
C -2.236584 -1.29895 -2.5 -0.663008 -2.5 0 
C -2.5 0.663008 -2.236584 1.29895 -1.767767 1.767767 
C -1.29895 2.236584 -0.663008 2.5 0 2.5 
z
" id="C1_0_6a12e16146"/>
    </defs>
    <g clip-path="url(#pb9c5f5f5ea)">
     <use style="fill:#579d42;" x="288.36" xlink:href="#C1_0_6a12e16146" y="344.117647"/>
    </g>
    <g clip-path="url(#pb9c5f5f5ea)">
     <use style="fill:#579d42;" x="288.36" xlink:href="#C1_0_6a12e16146" y="308.588235"/>
    </g>
    <g clip-path="url(#pb9c5f5f5ea)">
     <use style="fill:#579d42;" x="288.36" xlink:href="#C1_0_6a12e16146" y="273.058823"/>
    </g>
    <g clip-path="url(#pb9c5f5f5ea)">
     <use style="fill:#579d42;" x="283.11" xlink:href="#C1_0_6a12e16146" y="273.058823"/>
    </g>
    <g clip-path="url(#pb9c5f5f5ea)">
     <use style="fill:#579d42;" x="288.36" xlink:href="#C1_0_6a12e16146" y="255.294118"/>
    </g>
    <g clip-path="url(#pb9c5f5f5ea)">
     <use style="fill:#579d42;" x="283.11" xlink:href="#C1_0_6a12e16146" y="255.294118"/>
    </g>
    <g clip-path="url(#pb9c5f5f5ea)">
     <use style="fill:#579d42;" x="288.36" xlink:href="#C1_0_6a12e16146" y="237.529412"/>
    </g>
    <g clip-path="url(#pb9c5f5f5ea)">
     <use style="fill:#579d42;" x="283.11" xlink:href="#C1_0_6a12e16146" y="237.529412"/>
    </g>
    <g clip-path="url(#pb9c5f5f5ea)">
     <use style="fill:#579d42;" x="293.61" xlink:href="#C1_0_6a12e16146" y="237.529412"/>
    </g>
    <g clip-path="url(#pb9c5f5f5ea)">
     <use style="fill:#579d42;" x="277.86" xlink:href="#C1_0_6a12e16146" y="237.529412"/>
    </g>
    <g clip-path="url(#pb9c5f5f5ea)">
     <use style="fill:#579d42;" x="288.36" xlink:href="#C1_0_6a12e16146" y="219.764706"/>
    </g>
    <g clip-path="url(#pb9c5f5f5ea)">
     <use style="fill:#579d42;" x="283.11" xlink:href="#C1_0_6a12e16146" y="219.764706"/>
    </g>
    <g clip-path="url(#pb9c5f5f5ea)">
     <use style="fill:#579d42;" x="288.36" xlink:href="#C1_0_6a12e16146" y="202"/>
    </g>
    <g clip-path="url(#pb9c5f5f5ea)">
     <use style="fill:#579d42;" x="288.36" xlink:href="#C1_0_6a12e16146" y="184.235294"/>
    </g>
    <g clip-path="url(#pb9c5f5f5ea)">
     <use style="fill:#579d42;" x="283.11" xlink:href="#C1_0_6a12e16146" y="184.235294"/>
    </g>
    <g clip-path="url(#pb9c5f5f5ea)">
     <use style="fill:#579d42;" x="293.61" xlink:href="#C1_0_6a12e16146" y="184.235294"/>
    </g>
    <g clip-path="url(#pb9c5f5f5ea)">
     <use style="fill:#579d42;" x="277.86" xlink:href="#C1_0_6a12e16146" y="184.235294"/>
    </g>
    <g clip-path="url(#pb9c5f5f5ea)">
     <use style="fill:#579d42;" x="288.36" xlink:href="#C1_0_6a12e16146" y="166.470588"/>
    </g>
    <g clip-path="url(#pb9c5f5f5ea)">
     <use style="fill:#579d42;" x="283.11" xlink:href="#C1_0_6a12e16146" y="166.470588"/>
    </g>
    <g clip-path="url(#pb9c5f5f5ea)">
     <use style="fill:#579d42;" x="288.36" xlink:href="#C1_0_6a12e16146" y="148.705882"/>
    </g>
    <g clip-path="url(#pb9c5f5f5ea)">
     <use style="fill:#579d42;" x="283.11" xlink:href="#C1_0_6a12e16146" y="148.705882"/>
    </g>
    <g clip-path="url(#pb9c5f5f5ea)">
     <use style="fill:#579d42;" x="293.61" xlink:href="#C1_0_6a12e16146" y="148.705882"/>
    </g>
    <g clip-path="url(#pb9c5f5f5ea)">
     <use style="fill:#579d42;" x="277.86" xlink:href="#C1_0_6a12e16146" y="148.705882"/>
    </g>
    <g clip-path="url(#pb9c5f5f5ea)">
     <use style="fill:#579d42;" x="298.86" xlink:href="#C1_0_6a12e16146" y="148.705882"/>
    </g>
    <g clip-path="url(#pb9c5f5f5ea)">
     <use style="fill:#579d42;" x="288.36" xlink:href="#C1_0_6a12e16146" y="130.941176"/>
    </g>
    <g clip-path="url(#pb9c5f5f5ea)">
     <use style="fill:#579d42;" x="283.11" xlink:href="#C1_0_6a12e16146" y="130.941176"/>
    </g>
    <g clip-path="url(#pb9c5f5f5ea)">
     <use style="fill:#579d42;" x="293.61" xlink:href="#C1_0_6a12e16146" y="130.941176"/>
    </g>
    <g clip-path="url(#pb9c5f5f5ea)">
     <use style="fill:#579d42;" x="277.86" xlink:href="#C1_0_6a12e16146" y="130.941176"/>
    </g>
    <g clip-path="url(#pb9c5f5f5ea)">
     <use style="fill:#579d42;" x="298.86" xlink:href="#C1_0_6a12e16146" y="130.941176"/>
    </g>
    <g clip-path="url(#pb9c5f5f5ea)">
     <use style="fill:#579d42;" x="272.61" xlink:href="#C1_0_6a12e16146" y="130.941176"/>
    </g>
    <g clip-path="url(#pb9c5f5f5ea)">
     <use style="fill:#579d42;" x="288.36" xlink:href="#C1_0_6a12e16146" y="113.17647"/>
    </g>
    <g clip-path="url(#pb9c5f5f5ea)">
     <use style="fill:#579d42;" x="288.36" xlink:href="#C1_0_6a12e16146" y="95.411765"/>
    </g>
    <g clip-path="url(#pb9c5f5f5ea)">
     <use style="fill:#579d42;" x="283.11" xlink:href="#C1_0_6a12e16146" y="95.411765"/>
    </g>
    <g clip-path="url(#pb9c5f5f5ea)">
     <use style="fill:#579d42;" x="293.61" xlink:href="#C1_0_6a12e16146" y="95.411765"/>
    </g>
    <g clip-path="url(#pb9c5f5f5ea)">
     <use style="fill:#579d42;" x="277.86" xlink:href="#C1_0_6a12e16146" y="95.411765"/>
    </g>
    <g clip-path="url(#pb9c5f5f5ea)">
     <use style="fill:#579d42;" x="288.36" xlink:href="#C1_0_6a12e16146" y="77.647059"/>
    </g>
    <g clip-path="url(#pb9c5f5f5ea)">
     <use style="fill:#579d42;" x="283.11" xlink:href="#C1_0_6a12e16146" y="77.647059"/>
    </g>
   </g>
  </g>
 </g>
 <defs>
  <clipPath id="pb9c5f5f5ea">
   <rect height="434.88" width="334.8" x="54" y="69.12"/>
  </clipPath>
 </defs>
</svg>
